<svg width="64" height="64" viewBox="0 0 64 64" fill="none" xmlns="http://www.w3.org/2000/svg">
<rect width="64" height="64" fill="#611F69"/>
<path d="M22.1433 36.4857C22.1433 38.4514 20.5375 40.0573 18.5717 40.0573C16.6059 40.0573 15 38.4514 15 36.4857C15 34.5199 16.6059 32.9141 18.5717 32.9141H22.1433V36.4857Z" fill="#E01E5A"/>
<path d="M23.943 36.4857C23.943 34.5199 25.5489 32.9141 27.5147 32.9141C29.4805 32.9141 31.0863 34.5199 31.0863 36.4857V45.4286C31.0863 47.3943 29.4805 49.0002 27.5147 49.0002C25.5489 49.0002 23.943 47.3943 23.943 45.4286V36.4857Z" fill="#E01E5A"/>
<path d="M27.5147 22.1432C25.5489 22.1432 23.943 20.5374 23.943 18.5716C23.943 16.6058 25.5489 15 27.5147 15C29.4805 15 31.0863 16.6058 31.0863 18.5716V22.1432H27.5147Z" fill="#36C5F0"/>
<path d="M27.5147 23.9424C29.4805 23.9424 31.0863 25.5482 31.0863 27.514C31.0863 29.4798 29.4805 31.0856 27.5147 31.0856H18.5717C16.6059 31.0856 15 29.4798 15 27.514C15 25.5482 16.6059 23.9424 18.5717 23.9424H27.5147Z" fill="#36C5F0"/>
<path d="M41.8567 27.514C41.8567 25.5482 43.4625 23.9424 45.4283 23.9424C47.3941 23.9424 49 25.5482 49 27.514C49 29.4798 47.3941 31.0856 45.4283 31.0856H41.8567V27.514Z" fill="#2EB67D"/>
<path d="M40.057 27.5145C40.057 29.4803 38.4511 31.0861 36.4853 31.0861C34.5195 31.0861 32.9137 29.4803 32.9137 27.5145V18.5716C32.9137 16.6058 34.5195 15 36.4853 15C38.4511 15 40.057 16.6058 40.057 18.5716V27.5145Z" fill="#2EB67D"/>
<path d="M36.4853 41.8564C38.4511 41.8564 40.057 43.4623 40.057 45.4281C40.057 47.3938 38.4511 48.9997 36.4853 48.9997C34.5195 48.9997 32.9137 47.3938 32.9137 45.4281V41.8564H36.4853Z" fill="#ECB22E"/>
<path d="M36.4853 40.0573C34.5195 40.0573 32.9137 38.4514 32.9137 36.4857C32.9137 34.5199 34.5195 32.9141 36.4853 32.9141H45.4283C47.3941 32.9141 49 34.5199 49 36.4857C49 38.4514 47.3941 40.0573 45.4283 40.0573H36.4853Z" fill="#ECB22E"/>
</svg>
