<svg width="64" height="64" viewBox="0 0 64 64" fill="none" xmlns="http://www.w3.org/2000/svg">
<rect width="64" height="64" fill="#2B44E7"/>
<path fill-rule="evenodd" clip-rule="evenodd" d="M52 31.064C51.997 31.3757 51.975 31.6712 51.8 32.142C51.591 32.733 51.2687 33.2743 50.8522 33.736C50.4357 34.198 49.934 34.57 49.3747 34.8288C48.8157 35.089 48.2123 35.2333 47.5988 35.2508C46.985 35.2685 46.3745 35.1625 45.802 34.9362C45.2295 34.7097 44.7073 34.3685 44.2643 33.9333C43.8213 33.4978 43.4697 32.9758 43.2267 32.3993C43.1017 32.1008 43.0207 31.761 42.9707 31.414C42.6662 25.6285 37.8765 21.0298 32.011 21.0298C26.1455 21.0298 21.035 25.9418 21.035 31.9993C21.035 38.0568 25.9485 42.9673 32.0095 42.9673C37.3142 42.9673 41.7393 39.207 42.762 34.2082C43.1798 34.7847 43.6713 35.3052 44.2598 35.7052C44.61 35.942 44.9898 36.1745 45.2885 36.2935C46.0375 36.5892 46.8365 36.7287 47.6385 36.7052C48.4405 36.6817 49.2307 36.4935 49.9605 36.1538C50.0957 36.0905 50.2505 35.998 50.4152 35.8862C50.942 35.5302 51.429 35.1098 51.8485 34.6333C50.5595 44.4335 42.1687 52 32.0095 52C20.9585 51.9985 12 43.0438 12 31.9993C12 20.9548 20.9586 12 32.011 12C43.0635 12 51.5115 20.4532 52 31.064Z" fill="white"/>
</svg>
