<svg width="64" height="64" viewBox="0 0 64 64" fill="none" xmlns="http://www.w3.org/2000/svg">
<rect width="64" height="64" fill="#FF7A59"/>
<path fill-rule="evenodd" clip-rule="evenodd" d="M37.7465 40.3208C35.2678 40.3208 33.2584 38.3324 33.2584 35.8798C33.2584 33.4268 35.2678 31.4384 37.7465 31.4384C40.2252 31.4384 42.2346 33.4268 42.2346 35.8798C42.2346 38.3324 40.2252 40.3208 37.7465 40.3208ZM39.0901 27.3293V23.3784C40.1322 22.8913 40.8621 21.848 40.8621 20.6373V20.5461C40.8621 18.8751 39.4807 17.508 37.7921 17.508H37.7004C36.0119 17.508 34.6304 18.8751 34.6304 20.5461V20.6373C34.6304 21.848 35.3604 22.8917 36.4025 23.3788V27.3293C34.8509 27.5667 33.4333 28.2 32.2641 29.132L21.3023 20.6936C21.3746 20.4187 21.4255 20.1357 21.4259 19.8383C21.4276 17.9461 19.8799 16.4098 17.967 16.4072C16.055 16.4051 14.5022 17.9371 14.5 19.8297C14.4978 21.7223 16.0455 23.2586 17.9584 23.2608C18.5816 23.2616 19.1586 23.0865 19.6642 22.8018L30.4468 31.103C29.53 32.4727 28.9926 34.1134 28.9926 35.8798C28.9926 37.7289 29.583 39.4395 30.5803 40.8463L27.3015 44.0915C27.0422 44.0144 26.7735 43.9607 26.4884 43.9607C24.917 43.9607 23.6428 45.2213 23.6428 46.7763C23.6428 48.3318 24.917 49.5924 26.4884 49.5924C28.0602 49.5924 29.3341 48.3318 29.3341 46.7763C29.3341 46.4951 29.2798 46.2287 29.2019 45.9722L32.4454 42.7623C33.9177 43.8742 35.7514 44.5424 37.7465 44.5424C42.5812 44.5424 46.5 40.6639 46.5 35.8798C46.5 31.5487 43.2849 27.9707 39.0901 27.3293Z" fill="white"/>
</svg>
