<svg width="64" height="64" viewBox="0 0 64 64" fill="none" xmlns="http://www.w3.org/2000/svg">
<rect width="64" height="64" fill="#ED1D24"/>
<path d="M48.2895 23.854C47.8985 22.3816 46.7465 21.2221 45.2836 20.8286C42.6321 20.1135 32 20.1135 32 20.1135C32 20.1135 21.3679 20.1135 18.7164 20.8286C17.2536 21.2221 16.1014 22.3816 15.7105 23.854C15 26.5227 15 32.0907 15 32.0907C15 32.0907 15 37.6586 15.7105 40.3275C16.1014 41.7997 17.2536 42.9592 18.7164 43.3529C21.3679 44.0679 32 44.0679 32 44.0679C32 44.0679 42.6321 44.0679 45.2836 43.3529C46.7465 42.9592 47.8985 41.7997 48.2895 40.3275C49 37.6586 49 32.0907 49 32.0907C49 32.0907 49 26.5227 48.2895 23.854Z" fill="white"/>
<path d="M28.5227 37.1455L37.4091 32.0905L28.5227 27.0349V37.1455Z" fill="#ED1D24"/>
</svg>
