<svg width="64" height="64" viewBox="0 0 64 64" fill="none" xmlns="http://www.w3.org/2000/svg">
<rect width="64" height="64" fill="#2A2A2A"/>
<path d="M48.4793 28.7422C49.3354 26.1264 49.0501 23.2253 47.6708 20.8473C45.5782 17.1852 41.3454 15.3304 37.2078 16.1865C35.4005 14.1414 32.7372 13 29.9787 13C25.7459 13 22.0363 15.7109 20.7046 19.7059C17.9937 20.2766 15.6633 21.9412 14.2841 24.3667C12.1915 28.0288 12.6671 32.5945 15.4731 35.7334C14.617 38.3967 14.9499 41.2503 16.3292 43.6283C18.4218 47.2904 22.6546 49.1927 26.7922 48.2891C28.6471 50.3342 31.2628 51.5232 34.0213 51.5232C38.2541 51.5232 41.9637 48.8123 43.2954 44.8173C46.0063 44.2466 48.3367 42.582 49.7159 40.1564C51.8085 36.4944 51.3329 31.8811 48.4793 28.7422ZM34.0213 49.0025C32.3091 49.0025 30.6921 48.4318 29.408 47.3379C29.4556 47.2904 29.5982 47.2428 29.6458 47.1952L37.3029 42.7722C37.6834 42.5344 37.9212 42.1539 37.9212 41.6783V30.8824L41.1552 32.7372C41.2028 32.7372 41.2028 32.7847 41.2028 32.8323V41.7735C41.2503 45.7685 38.0163 49.0025 34.0213 49.0025ZM18.5169 42.3917C17.6608 40.9174 17.3755 39.2053 17.6608 37.5407C17.7084 37.5882 17.8035 37.6358 17.8986 37.6834L25.5557 42.1064C25.9362 42.3442 26.4118 42.3442 26.7922 42.1064L36.1615 36.6846V40.4418C36.1615 40.4894 36.1614 40.5369 36.1139 40.5369L28.3617 45.0075C24.9374 47.005 20.5144 45.816 18.5169 42.3917ZM16.5194 25.6508C17.3755 24.1765 18.7071 23.0826 20.2766 22.4643V31.5957C20.2766 32.0238 20.5144 32.4518 20.8949 32.6896L30.2641 38.1114L27.03 39.9662C26.9825 39.9662 26.9349 40.0138 26.9349 39.9662L19.1827 35.4956C15.6633 33.4981 14.5219 29.0751 16.5194 25.6508ZM43.1527 31.8335L33.7835 26.4118L37.0175 24.5569C37.0651 24.5569 37.1126 24.5094 37.1126 24.5569L44.8648 29.0275C48.3367 31.025 49.4781 35.4481 47.4806 38.8723C46.6245 40.3467 45.2929 41.4405 43.7234 42.0113V32.9274C43.771 32.4994 43.5332 32.0713 43.1527 31.8335ZM46.3392 26.9825C46.2916 26.9349 46.1965 26.8874 46.1014 26.8398L38.4443 22.4168C38.0638 22.179 37.5882 22.179 37.2078 22.4168L27.8385 27.8385V24.0814C27.8385 24.0338 27.8385 23.9862 27.8861 23.9862L35.6383 19.5156C39.1101 17.5181 43.4856 18.7071 45.4831 22.179C46.3392 23.6058 46.6245 25.3179 46.3392 26.9825ZM26.0788 33.6408L22.8448 31.786C22.7972 31.786 22.7972 31.7384 22.7972 31.6909V22.7497C22.7972 18.7547 26.0313 15.5207 30.0263 15.5207C31.7384 15.5207 33.3554 16.0914 34.6395 17.1852C34.592 17.2328 34.4969 17.2804 34.4018 17.3279L26.7447 21.7509C26.3642 21.9887 26.1264 22.3692 26.1264 22.8448V33.6408H26.0788ZM27.8385 29.836L32.0238 27.4105L36.209 29.836V34.6395L32.0238 37.0651L27.8385 34.6395V29.836Z" fill="white"/>
</svg>
