<svg width="64" height="64" viewBox="0 0 64 64" fill="none" xmlns="http://www.w3.org/2000/svg">
<rect width="64" height="64" fill="#FF385C"/>
<path d="M48.3341 44.1198C48.0474 46.249 46.6148 48.0914 44.6087 48.9102C43.6259 49.3192 42.5618 49.4423 41.4972 49.3192C40.4739 49.1965 39.4502 48.8689 38.3861 48.2554C36.9121 47.4358 35.4381 46.1672 33.7188 44.2838C36.4209 40.9678 38.0581 37.938 38.6723 35.2367C38.959 33.9672 38.9999 32.8208 38.8772 31.7563C38.7137 30.733 38.3452 29.7911 37.7718 28.9723C36.5027 27.1303 34.3739 26.0657 31.9994 26.0657C29.6248 26.0657 27.4961 27.1712 26.227 28.9723C25.6536 29.7911 25.2855 30.733 25.1215 31.7563C24.9579 32.8208 24.9988 34.0081 25.3264 35.2367C25.9403 37.938 27.6188 41.0087 30.28 44.3243C28.6016 46.2081 27.0867 47.4771 25.6127 48.2959C24.5486 48.9102 23.5249 49.2378 22.5016 49.3601C21.3961 49.4832 20.3315 49.3192 19.3901 48.9511C17.384 48.1323 15.9513 46.2894 15.6646 44.1607C15.5419 43.1374 15.6237 42.1141 16.0331 40.9678C16.1558 40.558 16.3607 40.1494 16.5652 39.6578C16.8519 39.003 17.1795 38.3065 17.5067 37.6104L17.548 37.529C20.3724 31.4287 23.4022 25.206 26.5546 19.1473L26.6773 18.9011C27.0049 18.2877 27.3321 17.6329 27.6601 17.0186C27.9873 16.3634 28.3558 15.7491 28.8061 15.2166C29.6657 14.2338 30.8121 13.7017 32.0812 13.7017C33.3503 13.7017 34.4966 14.2338 35.3563 15.2166C35.8066 15.7491 36.1751 16.3634 36.5027 17.0186C36.8303 17.6329 37.1575 18.2877 37.4851 18.9011L37.6082 19.1473C40.7193 25.2469 43.749 31.4696 46.5739 37.5699V37.6104C46.9015 38.2656 47.1878 39.003 47.5154 39.6578C47.7203 40.1494 47.9248 40.558 48.0474 40.9678C48.375 42.0319 48.4977 43.056 48.3341 44.1198ZM31.9994 42.1955C29.7888 39.412 28.3558 36.7916 27.8646 34.5815C27.6601 33.6396 27.6188 32.8208 27.7419 32.0839C27.8237 31.4287 28.0695 30.8553 28.3967 30.3637C29.1746 29.2594 30.4845 28.5621 31.9994 28.5621C33.5143 28.5621 34.8651 29.2177 35.6021 30.3637C35.9293 30.8553 36.1751 31.4287 36.2569 32.0839C36.3796 32.8208 36.3387 33.6805 36.1342 34.5815C35.643 36.7512 34.2099 39.3711 31.9994 42.1955ZM50.4629 40.0668C50.2584 39.5756 50.0535 39.0435 49.849 38.5932C49.5214 37.8566 49.1938 37.1601 48.9071 36.505L48.8662 36.4645C46.0418 30.3232 43.0121 24.1005 39.8187 17.9605L39.696 17.7143C39.3684 17.1 39.0408 16.4448 38.7137 15.79C38.3039 15.0526 37.8945 14.2755 37.2397 13.5381C35.9293 11.9006 34.0463 11 32.0403 11C29.9933 11 28.1513 11.9006 26.8 13.4568C26.1861 14.1933 25.7358 14.9712 25.3264 15.7086C24.9988 16.3634 24.6712 17.0186 24.3437 17.6329L24.221 17.8779C21.0689 24.0187 17.9983 30.2418 15.1735 36.3827L15.1326 36.4645C14.8459 37.1192 14.5183 37.8149 14.1907 38.5523C13.9862 39.003 13.7813 39.4942 13.5768 40.0263C13.0443 41.5408 12.8807 42.9738 13.0852 44.4474C13.5359 47.518 15.5828 50.0975 18.4077 51.2434C19.4719 51.6941 20.5773 51.8986 21.7237 51.8986C22.0513 51.8986 22.4607 51.8577 22.7883 51.8164C24.1392 51.6524 25.5309 51.203 26.8818 50.4247C28.5607 49.4832 30.1573 48.1323 31.9585 46.1672C33.7597 48.1323 35.3972 49.4832 37.0348 50.4247C38.3861 51.203 39.7778 51.6524 41.1287 51.8164C41.4563 51.8577 41.8657 51.8986 42.1933 51.8986C43.3397 51.8986 44.4856 51.6941 45.5093 51.2434C48.375 50.0975 50.3811 47.4771 50.8314 44.4474C51.159 43.0143 50.995 41.5821 50.4629 40.0668Z" fill="white"/>
</svg>
