<svg width="64" height="64" viewBox="0 0 64 64" fill="none" xmlns="http://www.w3.org/2000/svg">
<rect width="64" height="64" fill="#F0F0F0"/>
<path fill-rule="evenodd" clip-rule="evenodd" d="M30.8995 16.4209C32.5101 16.4209 33.9775 17.3494 34.671 18.8053L40.1964 30.4291C40.1964 30.4291 40.1964 30.4349 40.1906 30.4349C40.1906 30.4349 40.1906 30.4291 40.1964 30.4291C41.4917 28.8415 42.4317 26.9729 42.8329 24.9668C43.2857 22.7028 45.4867 21.2412 47.7508 21.6883C48.289 21.7958 48.8008 22.0084 49.2568 22.3137C49.7129 22.6191 50.1044 23.0113 50.4088 23.468C50.7133 23.9247 50.9248 24.4369 51.0313 24.9753C51.1377 25.5138 51.137 26.0679 51.0293 26.6061C50.1007 31.243 47.51 35.387 44.0022 38.4306L46.0083 42.6491C47.1203 44.9876 45.9567 47.8477 43.4921 48.5814L43.4176 48.6043C43.0507 48.7075 42.6725 48.759 42.3056 48.759C40.7409 48.759 39.2449 47.8764 38.5284 46.3747L36.7459 42.6261L33.1177 34.9915L31.3351 31.243C31.2964 31.1618 31.2355 31.0933 31.1594 31.0453C31.0833 30.9973 30.9952 30.9718 30.9053 30.9718C30.8153 30.9718 30.7272 30.9973 30.6511 31.0453C30.575 31.0933 30.5141 31.1618 30.4754 31.243L28.6527 35.0718C25.8728 34.4814 23.0757 32.7619 21.4938 30.6699L27.1281 18.8167C27.4635 18.0998 27.9965 17.4936 28.6646 17.0692C29.3327 16.6448 30.108 16.4199 30.8995 16.4209ZM15.1087 26.7265C17.2466 25.861 19.6826 26.8927 20.5481 29.0363C20.7716 29.5923 21.0926 30.1368 21.4881 30.6584L21.4938 30.6641L21.6829 30.9049C21.7001 30.9278 21.7173 30.945 21.7345 30.9679L21.7861 31.031C21.8148 31.0596 21.8377 31.094 21.8664 31.1227C21.8721 31.1284 21.8778 31.1341 21.8778 31.1399L21.8664 31.1227C21.9753 31.2545 22.0956 31.3806 22.216 31.5067C22.2217 31.5124 22.2217 31.5181 22.2274 31.5181C22.6229 31.9308 23.0643 32.3206 23.54 32.6817C23.7635 32.8536 23.9928 33.0141 24.2278 33.1746C24.2507 33.1861 24.2679 33.2033 24.2909 33.2147C25.6149 34.0859 27.1338 34.7394 28.647 35.0603C29.2889 35.1979 29.9309 35.2724 30.5556 35.2781H30.6359C31.467 35.2781 32.2981 35.175 33.112 34.9801L36.7401 42.6147C34.7799 43.2738 32.7222 43.6349 30.6359 43.6349C28.7559 43.6349 26.8529 43.3082 25.0073 42.7179L23.2706 46.3689C23.0281 46.8789 22.6847 47.3344 22.2612 47.7078C21.8376 48.0813 21.3427 48.365 20.8065 48.5418C20.2702 48.7186 19.7036 48.7848 19.141 48.7364C18.5784 48.6881 18.0314 48.5261 17.5332 48.2604C15.5385 47.2 14.8106 44.701 15.7793 42.6605L17.6822 38.6598C15.5328 36.8429 13.819 34.6362 12.8274 32.2403L12.7988 32.1658C11.939 30.0279 12.9707 27.5919 15.1087 26.7265Z" fill="black"/>
<path fill-rule="evenodd" clip-rule="evenodd" d="M30.8995 16.4209C32.5101 16.4209 33.9775 17.3494 34.671 18.8053L40.1964 30.4291C40.1964 30.4291 40.1964 30.4349 40.1906 30.4349C40.1906 30.4349 40.1906 30.4291 40.1964 30.4291C41.4917 28.8415 42.4317 26.9729 42.8329 24.9668C43.2857 22.7028 45.4867 21.2412 47.7508 21.6883C48.289 21.7958 48.8008 22.0084 49.2568 22.3137C49.7129 22.6191 50.1044 23.0113 50.4088 23.468C50.7133 23.9247 50.9248 24.4369 51.0313 24.9753C51.1377 25.5138 51.137 26.0679 51.0293 26.6061C50.1007 31.243 47.51 35.387 44.0022 38.4306L46.0083 42.6491C47.1203 44.9876 45.9567 47.8477 43.4921 48.5814L43.4176 48.6043C43.0507 48.7075 42.6725 48.759 42.3056 48.759C40.7409 48.759 39.2449 47.8764 38.5284 46.3747L36.7459 42.6261L33.1177 34.9915L31.3351 31.243C31.2964 31.1618 31.2355 31.0933 31.1594 31.0453C31.0833 30.9973 30.9952 30.9718 30.9053 30.9718C30.8153 30.9718 30.7272 30.9973 30.6511 31.0453C30.575 31.0933 30.5141 31.1618 30.4754 31.243L28.6527 35.0718C25.8728 34.4814 23.0757 32.7619 21.4938 30.6699L27.1281 18.8167C27.4635 18.0998 27.9965 17.4936 28.6646 17.0692C29.3327 16.6448 30.108 16.4199 30.8995 16.4209ZM15.1087 26.7265C17.2466 25.861 19.6826 26.8927 20.5481 29.0363C20.7716 29.5923 21.0926 30.1368 21.4881 30.6584L21.4938 30.6641L21.6829 30.9049C21.7001 30.9278 21.7173 30.945 21.7345 30.9679L21.7861 31.031C21.8148 31.0596 21.8377 31.094 21.8664 31.1227C21.8721 31.1284 21.8778 31.1341 21.8778 31.1399L21.8664 31.1227C21.9753 31.2545 22.0956 31.3806 22.216 31.5067C22.2217 31.5124 22.2217 31.5181 22.2274 31.5181C22.6229 31.9308 23.0643 32.3206 23.54 32.6817C23.7635 32.8536 23.9928 33.0141 24.2278 33.1746C24.2507 33.1861 24.2679 33.2033 24.2909 33.2147C25.6149 34.0859 27.1338 34.7394 28.647 35.0603C29.2889 35.1979 29.9309 35.2724 30.5556 35.2781H30.6359C31.467 35.2781 32.2981 35.175 33.112 34.9801L36.7401 42.6147C34.7799 43.2738 32.7222 43.6349 30.6359 43.6349C28.7559 43.6349 26.8529 43.3082 25.0073 42.7179L23.2706 46.3689C23.0281 46.8789 22.6847 47.3344 22.2612 47.7078C21.8376 48.0813 21.3427 48.365 20.8065 48.5418C20.2702 48.7186 19.7036 48.7848 19.141 48.7364C18.5784 48.6881 18.0314 48.5261 17.5332 48.2604C15.5385 47.2 14.8106 44.701 15.7793 42.6605L17.6822 38.6598C15.5328 36.8429 13.819 34.6362 12.8274 32.2403L12.7988 32.1658C11.939 30.0279 12.9707 27.5919 15.1087 26.7265Z" fill="white"/>
<path d="M40.1964 30.4291L34.671 18.8053C33.9775 17.3494 32.5101 16.4209 30.8995 16.4209C30.108 16.4199 29.3327 16.6448 28.6646 17.0692C27.9965 17.4936 27.4635 18.0998 27.1281 18.8167L21.4938 30.6699C23.0757 32.7619 25.8728 34.4814 28.6527 35.0718L30.4754 31.243C30.5141 31.1618 30.575 31.0933 30.6511 31.0453C30.7272 30.9973 30.8153 30.9718 30.9053 30.9718C30.9952 30.9718 31.0833 30.9973 31.1594 31.0453C31.2355 31.0933 31.2964 31.1618 31.3351 31.243L33.1177 34.9915M40.1964 30.4291C40.1964 30.4291 40.1964 30.4349 40.1906 30.4349C40.1906 30.4349 40.1906 30.4291 40.1964 30.4291ZM40.1964 30.4291C41.4917 28.8415 42.4317 26.9729 42.8329 24.9668C43.2857 22.7028 45.4867 21.2412 47.7508 21.6883C48.289 21.7958 48.8008 22.0084 49.2568 22.3137C49.7129 22.6191 50.1044 23.0113 50.4088 23.468C50.7133 23.9247 50.9248 24.4369 51.0313 24.9753C51.1377 25.5138 51.137 26.0679 51.0293 26.6061C50.1007 31.243 47.51 35.387 44.0022 38.4306L46.0083 42.6491C47.1203 44.9876 45.9567 47.8477 43.4921 48.5814L43.4176 48.6043C43.0507 48.7075 42.6725 48.759 42.3056 48.759C40.7409 48.759 39.2449 47.8764 38.5284 46.3747L36.7459 42.6261L33.1177 34.9915M33.1177 34.9915H33.1292M21.8664 31.1227C21.8377 31.094 21.8148 31.0596 21.7861 31.031L21.7345 30.9679C21.7173 30.945 21.7001 30.9278 21.6829 30.9049L21.4938 30.6641L21.4881 30.6584C21.0926 30.1368 20.7716 29.5923 20.5481 29.0363C19.6826 26.8927 17.2466 25.861 15.1087 26.7265C12.9707 27.5919 11.939 30.0279 12.7988 32.1658L12.8274 32.2403C13.819 34.6362 15.5328 36.8429 17.6822 38.6598L15.7793 42.6605C14.8106 44.701 15.5385 47.2 17.5332 48.2604C18.0314 48.5261 18.5784 48.6881 19.141 48.7364C19.7036 48.7848 20.2702 48.7186 20.8065 48.5418C21.3427 48.365 21.8376 48.0813 22.2612 47.7078C22.6847 47.3344 23.0281 46.8789 23.2706 46.3689L25.0073 42.7179C26.8529 43.3082 28.7559 43.6349 30.6359 43.6349C32.7222 43.6349 34.7799 43.2738 36.7401 42.6147L33.112 34.9801C32.2981 35.175 31.467 35.2781 30.6359 35.2781H30.5556C29.9309 35.2724 29.2889 35.1979 28.647 35.0603C27.1338 34.7394 25.6149 34.0859 24.2909 33.2147C24.2679 33.2033 24.2507 33.1861 24.2278 33.1746C23.9928 33.0141 23.7635 32.8536 23.54 32.6817C23.0643 32.3206 22.6229 31.9308 22.2274 31.5181C22.2217 31.5181 22.2217 31.5124 22.216 31.5067C22.0956 31.3806 21.9753 31.2545 21.8664 31.1227ZM21.8664 31.1227C21.8721 31.1284 21.8778 31.1341 21.8778 31.1399L21.8664 31.1227Z" stroke="white" stroke-width="3.93767" stroke-linejoin="round"/>
<path fill-rule="evenodd" clip-rule="evenodd" d="M25.0073 42.7167L28.647 35.0592C25.8671 34.4688 23.07 32.7493 21.4881 30.6572L17.6822 38.6587C19.7972 40.4527 22.3363 41.8627 25.0073 42.7167Z" fill="#1A007F"/>
<path fill-rule="evenodd" clip-rule="evenodd" d="M40.1963 30.4287C38.3679 32.6698 35.8288 34.332 33.112 34.9797L36.7401 42.6143C39.3882 41.7201 41.8643 40.2757 44.0022 38.4244L40.1963 30.4287Z" fill="#4E000A"/>
<path fill-rule="evenodd" clip-rule="evenodd" d="M17.6822 38.6592L15.7793 42.6599C14.8106 44.6946 15.5385 47.1994 17.5332 48.2597C19.6482 49.3832 22.2504 48.5062 23.2706 46.3683L25.0073 42.7172C22.3254 41.8526 19.8375 40.4743 17.6822 38.6592Z" fill="#1A007F"/>
<path fill-rule="evenodd" clip-rule="evenodd" d="M47.7507 21.6936C47.2125 21.5859 46.6584 21.5852 46.1199 21.6917C45.5815 21.7981 45.0693 22.0096 44.6126 22.3141C44.1559 22.6185 43.7637 23.01 43.4583 23.4661C43.153 23.9221 42.9405 24.4339 42.8329 24.9721C42.4317 26.9782 41.4917 28.8468 40.1963 30.4344L43.9965 38.4359C47.5043 35.3923 50.095 31.2483 51.0235 26.6114C51.4763 24.3417 50.009 22.1407 47.7507 21.6936Z" fill="#FF9396"/>
<path fill-rule="evenodd" clip-rule="evenodd" d="M33.112 34.9805C32.2981 35.1754 31.467 35.2785 30.6359 35.2785C29.9882 35.2785 29.3176 35.204 28.647 35.0607C25.8671 34.4704 23.07 32.7509 21.4881 30.6588C21.0926 30.1372 20.7716 29.5927 20.5481 29.0367C19.6826 26.8988 17.2466 25.8671 15.1087 26.7269C12.9707 27.5923 11.939 30.0283 12.7988 32.1662C13.7789 34.5965 15.5099 36.8261 17.6822 38.6602C19.8354 40.4753 22.3215 41.8536 25.0016 42.7183C26.8415 43.3086 28.7501 43.6353 30.6301 43.6353C32.7165 43.6353 34.7742 43.2742 36.7344 42.6151L33.112 34.9805Z" fill="#002DC8"/>
<path fill-rule="evenodd" clip-rule="evenodd" d="M46.0026 42.6433L43.9965 38.4248L40.1963 30.4291L40.1906 30.4349C40.1906 30.4349 40.1906 30.4291 40.1963 30.4291L34.671 18.8053C34.3318 18.0921 33.7975 17.4897 33.13 17.0677C32.4626 16.6457 31.6892 16.4215 30.8995 16.4209C29.2889 16.4209 27.8216 17.3494 27.128 18.8053L21.4938 30.6584C23.0757 32.7505 25.8728 34.47 28.6527 35.0603L30.4754 31.2316C30.6473 30.8705 31.1632 30.8705 31.3351 31.2316L33.1177 34.9801L36.7459 42.6147L38.5284 46.3632C38.8673 47.0777 39.4023 47.6812 40.0711 48.1034C40.7398 48.5255 41.5148 48.7489 42.3056 48.7476C42.6782 48.7476 43.0507 48.696 43.4176 48.5928C45.9338 47.8993 47.126 45.0048 46.0026 42.6433Z" fill="#FF536A"/>
<path fill-rule="evenodd" clip-rule="evenodd" d="M25.0073 42.7167L28.647 35.0592C25.8671 34.4688 23.07 32.7493 21.488 30.6572L17.6822 38.6587C19.7972 40.4527 22.3363 41.8627 25.0073 42.7167Z" fill="#1A007F"/>
<path fill-rule="evenodd" clip-rule="evenodd" d="M40.1963 30.4287C38.3679 32.6698 35.8288 34.332 33.112 34.9797L36.7401 42.6143C39.3882 41.7201 41.8643 40.2757 44.0022 38.4244L40.1963 30.4287Z" fill="#4E000A"/>
<path fill-rule="evenodd" clip-rule="evenodd" d="M17.6822 38.6602L15.7793 42.6609C14.8106 44.6956 15.5385 47.2004 17.5332 48.2607C19.6482 49.3841 22.2504 48.5072 23.2706 46.3693L25.0073 42.7182C22.3254 41.8536 19.8375 40.4753 17.6822 38.6602Z" fill="#1A007F"/>
<path fill-rule="evenodd" clip-rule="evenodd" d="M47.7507 21.6936C47.2125 21.5859 46.6584 21.5852 46.1199 21.6917C45.5815 21.7981 45.0693 22.0096 44.6126 22.3141C44.1559 22.6185 43.7637 23.01 43.4583 23.4661C43.153 23.9221 42.9405 24.4339 42.8329 24.9721C42.4317 26.9782 41.4917 28.8468 40.1963 30.4344L43.9965 38.4359C47.5043 35.3923 50.095 31.2483 51.0235 26.6114C51.4763 24.3417 50.009 22.1407 47.7507 21.6936Z" fill="#FF9396"/>
<path fill-rule="evenodd" clip-rule="evenodd" d="M33.112 34.9795C32.2981 35.1744 31.467 35.2776 30.6359 35.2776C29.9882 35.2776 29.3176 35.203 28.647 35.0598C25.8671 34.4694 23.07 32.7499 21.4881 30.6578C21.0926 30.1362 20.7716 29.5917 20.5481 29.0358C19.6826 26.8978 17.2466 25.8661 15.1087 26.7259C12.9707 27.5914 11.939 30.0273 12.7988 32.1653C13.7789 34.5955 15.5099 36.8251 17.6822 38.6592C19.8354 40.4743 22.3215 41.8526 25.0016 42.7173C26.8415 43.3076 28.7501 43.6343 30.6301 43.6343C32.7165 43.6343 34.7742 43.2732 36.7344 42.6141L33.112 34.9795Z" fill="#002DC8"/>
<path fill-rule="evenodd" clip-rule="evenodd" d="M46.0026 42.6424L43.9965 38.4238L40.1963 30.4281L40.1906 30.4339C40.1906 30.4339 40.1906 30.4281 40.1963 30.4281L34.671 18.8043C34.3318 18.0912 33.7975 17.4887 33.13 17.0667C32.4626 16.6447 31.6892 16.4205 30.8995 16.4199C29.2889 16.4199 27.8216 17.3485 27.128 18.8043L21.4938 30.6574C23.0757 32.7495 25.8728 34.469 28.6527 35.0593L30.4754 31.2306C30.6473 30.8695 31.1632 30.8695 31.3351 31.2306L33.1177 34.9791L36.7459 42.6137L38.5284 46.3622C38.8673 47.0767 39.4023 47.6802 40.0711 48.1024C40.7398 48.5245 41.5148 48.7479 42.3056 48.7466C42.6782 48.7466 43.0507 48.695 43.4176 48.5918C45.9338 47.8983 47.126 45.0038 46.0026 42.6424Z" fill="#FF536A"/>
</svg>
