<svg width="64" height="64" viewBox="0 0 64 64" fill="none" xmlns="http://www.w3.org/2000/svg">
<rect width="64" height="64" fill="#F0F0F0"/>
<path d="M32.0004 41.9993C37.5236 41.9993 42.0008 37.5218 42.0008 31.9987C42.0008 26.4755 37.5236 21.998 32.0004 21.998C26.4773 21.998 22 26.4755 22 31.9987C22 37.5218 26.4773 41.9993 32.0004 41.9993Z" fill="white"/>
<path d="M23.3396 37.0014L14.6803 22.0029C12.9245 25.0431 12 28.492 12 32.0029C12 35.5139 12.9241 38.9627 14.6797 42.0029C16.4353 45.0431 18.9604 47.5679 22.001 49.3226C25.0417 51.0774 28.4909 52.0008 32.0017 51.9998L40.661 37.0014V36.999C39.7839 38.5201 38.5218 39.7833 37.0016 40.6616C35.4814 41.5399 33.7567 42.0024 32.001 42.0027C30.2454 42.0029 28.5206 41.5409 27.0001 40.6631C25.4797 39.7852 24.2172 38.5224 23.3396 37.0018V37.0014Z" fill="#229342"/>
<path d="M40.6604 37.001L32.0013 51.9994C35.512 52 38.9611 51.0759 42.0015 49.3207C45.0419 47.5656 47.5666 45.0406 49.3218 42C51.0769 38.9594 52.0006 35.5104 52 31.9996C51.9994 28.4888 51.0744 25.04 49.3182 22H31.9998L31.9977 22.0015C33.7534 22.0006 35.4783 22.4621 36.9991 23.3394C38.5199 24.2169 39.7827 25.4791 40.6608 26.9995C41.5389 28.5199 42.0011 30.2446 42.0011 32.0003C42.001 33.7561 41.5387 35.4808 40.6606 37.0012L40.6604 37.001Z" fill="#FBC116"/>
<path d="M32.0004 39.9183C36.3729 39.9183 39.9175 36.3738 39.9175 32.0011C39.9175 27.6283 36.3729 24.084 32.0004 24.084C27.6279 24.084 24.0834 27.6286 24.0834 32.0011C24.0834 36.3735 27.6279 39.9183 32.0004 39.9183Z" fill="#1A73E8"/>
<path d="M32.0004 22.0006H49.3188C47.5639 18.96 45.0394 16.4349 41.9989 14.6793C38.9586 12.9238 35.5097 11.9997 31.9989 12C28.4882 12.0002 25.0394 12.9247 21.9994 14.6807C18.9593 16.4367 16.435 18.962 14.6805 22.0029L23.3398 37.0014L23.3422 37.0026C22.4636 35.4826 22.0007 33.7579 22.0002 32.0022C21.9996 30.2465 22.4614 28.5216 23.339 27.001C24.2165 25.4803 25.4793 24.2175 26.9997 23.3398C28.5201 22.4622 30.245 22 32.0008 22.0004L32.0004 22.0006Z" fill="#E33B2E"/>
</svg>
