<svg width="64" height="64" viewBox="0 0 64 64" fill="none" xmlns="http://www.w3.org/2000/svg">
<rect width="64" height="64" fill="#1ED760"/>
<g clip-path="url(#clip0_2234_63641)">
<path d="M43.6523 29.7683C37.3027 25.9975 26.829 25.6508 20.7675 27.4905C19.794 27.7859 18.7646 27.2362 18.4698 26.263C18.1748 25.289 18.7237 24.2603 19.6978 23.9644C26.6561 21.8523 38.2231 22.2602 45.533 26.5994C46.4085 27.1193 46.6957 28.25 46.1768 29.124C45.6574 29.9995 44.5257 30.2881 43.6523 29.7683ZM43.4444 35.3536C42.9989 36.0764 42.0537 36.3032 41.3318 35.8593C36.0381 32.6053 27.966 31.6626 21.7031 33.5637C20.891 33.8092 20.0331 33.3512 19.7864 32.5406C19.5417 31.7284 19.9999 30.8722 20.8106 30.6252C27.965 28.4542 36.859 29.5057 42.9391 33.2421C43.661 33.6868 43.8883 34.6324 43.4444 35.3536ZM41.034 40.7174C40.68 41.2979 39.9243 41.4798 39.3458 41.1259C34.7201 38.2988 28.8978 37.6604 22.041 39.2265C21.3802 39.378 20.7217 38.964 20.571 38.3032C20.4197 37.6428 20.8322 36.9841 21.4944 36.8334C28.9979 35.118 35.4346 35.8563 40.6266 39.0289C41.2055 39.3825 41.3878 40.1387 41.034 40.7174ZM32.0001 12.3053C21.121 12.3053 12.3016 21.1246 12.3016 32.0034C12.3016 42.8836 21.121 51.7021 32.0001 51.7021C42.8794 51.7021 51.6984 42.8836 51.6984 32.0034C51.6984 21.1246 42.8794 12.3053 32.0001 12.3053Z" fill="white"/>
</g>
<defs>
<clipPath id="clip0_2234_63641">
<rect width="40" height="40" fill="white" transform="translate(12 12)"/>
</clipPath>
</defs>
</svg>
