<svg width="38" viewBox="0 0 38 38" fill="none" xmlns="http://www.w3.org/2000/svg">
    <path
        d="M17.7168 3.12998C15.1456 9.85853 15.9732 16.0381 19.4645 20.3834C22.9348 24.7027 28.7379 26.8346 35.3613 26.1237C35.4237 26.117 35.4898 26.1275 35.5629 26.1647C35.6413 26.2045 35.7091 26.2664 35.752 26.3295C30.4336 32.4234 24.9706 34.5913 20.3225 34.5169C15.6188 34.4416 11.4348 32.07 8.69856 28.5033C5.96215 24.9363 4.74318 20.2641 5.87051 15.6734C6.98386 11.1397 10.461 6.3986 17.6629 2.80686C17.6921 2.84763 17.7167 2.89975 17.7288 2.95532C17.7423 3.01772 17.7383 3.07372 17.7168 3.12998ZM17.6051 2.7467C17.6051 2.74668 17.6055 2.7469 17.6064 2.74742L17.6051 2.7467Z"
        stroke="currentcolor" stroke-width="4" stroke-linejoin="round"></path>
</svg>