<svg width="91" height="111" viewBox="0 0 91 111" fill="none" xmlns="http://www.w3.org/2000/svg">
<path d="M89.9578 110.5H1.0422C0.742749 110.5 0.5 110.257 0.5 109.958L0.5 1.0422C0.5 0.74275 0.742749 0.5 1.0422 0.5L73.071 0.5C73.214 0.5 73.3512 0.556457 73.4527 0.657092L90.3395 17.3931C90.4422 17.4949 90.5 17.6335 90.5 17.7782V109.958C90.5 110.257 90.2573 110.5 89.9578 110.5Z" fill="white" stroke="#171618"/>
<path d="M89.9578 110.5H1.0422C0.742751 110.5 0.5 110.257 0.5 109.958L0.5 1.0422C0.5 0.74275 0.742749 0.5 1.0422 0.5L72.4578 0.5C72.7572 0.5 73 0.742751 73 1.0422V16.3015C73 17.1533 73.6905 17.8438 74.5422 17.8438H89.9578C90.2572 17.8438 90.5 18.0865 90.5 18.386V109.958C90.5 110.257 90.2572 110.5 89.9578 110.5Z" fill="white" stroke="#171618"/>
<rect x="15" y="29" width="60" height="40" rx="2" stroke="#171618"/>
<circle cx="27" cy="41" r="6" fill="#171618"/>
<path d="M27.9612 55.6925L15.5 64V67L16.5 68.5H73L74 68L74.5 67V55L62.816 45.1136C62.0598 44.4737 60.949 44.4838 60.2046 45.1375L42.0827 61.0493C41.4361 61.6171 40.4987 61.7076 39.7554 61.274L30.0784 55.6291C29.4185 55.2441 28.5969 55.2687 27.9612 55.6925Z" fill="#171618"/>
<path d="M20.1714 93V87.5455H21.0094V93H20.1714ZM20.5975 86.6364C20.4342 86.6364 20.2933 86.5807 20.1749 86.4695C20.0589 86.3582 20.0009 86.2244 20.0009 86.0682C20.0009 85.9119 20.0589 85.7782 20.1749 85.6669C20.2933 85.5556 20.4342 85.5 20.5975 85.5C20.7609 85.5 20.9005 85.5556 21.0165 85.6669C21.1349 85.7782 21.1941 85.9119 21.1941 86.0682C21.1941 86.2244 21.1349 86.3582 21.0165 86.4695C20.9005 86.5807 20.7609 86.6364 20.5975 86.6364Z" fill="#171618"/>
<path d="M22.5444 93V87.5455H23.3541V88.3977H23.4251C23.5387 88.1065 23.7222 87.8804 23.9755 87.7195C24.2288 87.5561 24.5331 87.4744 24.8882 87.4744C25.248 87.4744 25.5475 87.5561 25.7866 87.7195C26.0281 87.8804 26.2163 88.1065 26.3512 88.3977H26.4081C26.5477 88.116 26.7572 87.8923 27.0366 87.7266C27.316 87.5585 27.651 87.4744 28.0416 87.4744C28.5293 87.4744 28.9282 87.6271 29.2383 87.9325C29.5484 88.2356 29.7035 88.7079 29.7035 89.3494V93H28.8654V89.3494C28.8654 88.947 28.7554 88.6593 28.5352 88.4865C28.315 88.3137 28.0558 88.2273 27.7575 88.2273C27.374 88.2273 27.0769 88.3433 26.8662 88.5753C26.6554 88.8049 26.5501 89.0961 26.5501 89.4489V93H25.6978V89.2642C25.6978 88.9541 25.5972 88.7043 25.396 88.5149C25.1947 88.3232 24.9355 88.2273 24.6183 88.2273C24.4005 88.2273 24.1969 88.2853 24.0075 88.4013C23.8205 88.5173 23.6689 88.6783 23.5529 88.8842C23.4393 89.0878 23.3825 89.3234 23.3825 89.5909V93H22.5444Z" fill="#171618"/>
<path d="M33.4375 95.1591C33.0327 95.1591 32.6847 95.107 32.3935 95.0028C32.1023 94.901 31.8596 94.7661 31.6655 94.598C31.4737 94.4323 31.3211 94.2547 31.2074 94.0653L31.875 93.5966C31.9508 93.696 32.0467 93.8097 32.1627 93.9375C32.2787 94.0677 32.4373 94.1802 32.6385 94.2749C32.8421 94.3719 33.1085 94.4205 33.4375 94.4205C33.8779 94.4205 34.2413 94.3139 34.5277 94.1009C34.8142 93.8878 34.9574 93.554 34.9574 93.0994V91.9915H34.8864C34.8248 92.0909 34.7372 92.214 34.6236 92.3608C34.5123 92.5052 34.3514 92.6342 34.1407 92.7479C33.9323 92.8591 33.6506 92.9148 33.2955 92.9148C32.8551 92.9148 32.4598 92.8106 32.1094 92.6023C31.7614 92.3939 31.4856 92.0909 31.282 91.6932C31.0808 91.2955 30.9801 90.8125 30.9801 90.2443C30.9801 89.6856 31.0784 89.1991 31.2749 88.7848C31.4714 88.3681 31.7448 88.0462 32.0952 87.8189C32.4456 87.5893 32.8504 87.4744 33.3097 87.4744C33.6648 87.4744 33.9465 87.5336 34.1549 87.652C34.3656 87.768 34.5265 87.9006 34.6378 88.0497C34.7514 88.1965 34.839 88.3172 34.9006 88.4119H34.9858V87.5455H35.7955V93.1562C35.7955 93.625 35.6889 94.0062 35.4759 94.2997C35.2652 94.5956 34.9811 94.8123 34.6236 94.9496C34.2685 95.0893 33.8731 95.1591 33.4375 95.1591ZM33.4091 92.1619C33.7453 92.1619 34.0294 92.085 34.2614 91.9311C34.4934 91.7772 34.6698 91.5559 34.7905 91.267C34.9112 90.9782 34.9716 90.6326 34.9716 90.2301C34.9716 89.8371 34.9124 89.4903 34.7941 89.1896C34.6757 88.889 34.5005 88.6534 34.2685 88.483C34.0365 88.3125 33.75 88.2273 33.4091 88.2273C33.054 88.2273 32.7581 88.3172 32.5213 88.4972C32.287 88.6771 32.1106 88.9186 31.9922 89.2216C31.8762 89.5246 31.8182 89.8608 31.8182 90.2301C31.8182 90.6089 31.8774 90.9439 31.9958 91.2351C32.1165 91.5239 32.2941 91.7512 32.5284 91.9169C32.7652 92.0803 33.0587 92.1619 33.4091 92.1619Z" fill="#171618"/>
<path d="M39.6875 93.0994C39.1525 93.0994 38.6968 92.9538 38.3203 92.6626C37.9439 92.3691 37.6563 91.9441 37.4574 91.3878C37.2586 90.8291 37.1591 90.1544 37.1591 89.3636C37.1591 88.5777 37.2586 87.9065 37.4574 87.3501C37.6586 86.7914 37.9475 86.3653 38.3239 86.0717C38.7027 85.7758 39.1572 85.6278 39.6875 85.6278C40.2178 85.6278 40.6712 85.7758 41.0476 86.0717C41.4264 86.3653 41.7152 86.7914 41.9141 87.3501C42.1153 87.9065 42.2159 88.5777 42.2159 89.3636C42.2159 90.1544 42.1165 90.8291 41.9176 91.3878C41.7188 91.9441 41.4311 92.3691 41.0547 92.6626C40.6783 92.9538 40.2226 93.0994 39.6875 93.0994ZM39.6875 92.3182C40.2178 92.3182 40.6298 92.0625 40.9233 91.5511C41.2169 91.0398 41.3637 90.3106 41.3637 89.3636C41.3637 88.7339 41.2962 88.1977 41.1612 87.755C41.0287 87.3123 40.8369 86.9749 40.586 86.7429C40.3374 86.5109 40.0379 86.3949 39.6875 86.3949C39.162 86.3949 38.7512 86.6541 38.4553 87.1726C38.1594 87.6887 38.0114 88.419 38.0114 89.3636C38.0114 89.9934 38.0777 90.5284 38.2103 90.9688C38.3428 91.4091 38.5334 91.7441 38.782 91.9737C39.0329 92.2034 39.3348 92.3182 39.6875 92.3182Z" fill="#171618"/>
<path d="M45.9375 93.0994C45.4025 93.0994 44.9468 92.9538 44.5703 92.6626C44.1939 92.3691 43.9063 91.9441 43.7074 91.3878C43.5086 90.8291 43.4091 90.1544 43.4091 89.3636C43.4091 88.5777 43.5086 87.9065 43.7074 87.3501C43.9086 86.7914 44.1975 86.3653 44.5739 86.0717C44.9527 85.7758 45.4072 85.6278 45.9375 85.6278C46.4678 85.6278 46.9212 85.7758 47.2976 86.0717C47.6764 86.3653 47.9652 86.7914 48.1641 87.3501C48.3653 87.9065 48.4659 88.5777 48.4659 89.3636C48.4659 90.1544 48.3665 90.8291 48.1676 91.3878C47.9688 91.9441 47.6811 92.3691 47.3047 92.6626C46.9283 92.9538 46.4726 93.0994 45.9375 93.0994ZM45.9375 92.3182C46.4678 92.3182 46.8798 92.0625 47.1733 91.5511C47.4669 91.0398 47.6137 90.3106 47.6137 89.3636C47.6137 88.7339 47.5462 88.1977 47.4112 87.755C47.2787 87.3123 47.0869 86.9749 46.836 86.7429C46.5874 86.5109 46.2879 86.3949 45.9375 86.3949C45.412 86.3949 45.0012 86.6541 44.7053 87.1726C44.4094 87.6887 44.2614 88.419 44.2614 89.3636C44.2614 89.9934 44.3277 90.5284 44.4603 90.9688C44.5928 91.4091 44.7834 91.7441 45.032 91.9737C45.2829 92.2034 45.5848 92.3182 45.9375 92.3182Z" fill="#171618"/>
<path d="M52.3722 85.7273V93H51.4915V86.6506H51.4489L49.6733 87.8295V86.9347L51.4915 85.7273H52.3722Z" fill="#171618"/>
<path d="M54.6591 93.0568C54.4839 93.0568 54.3336 92.9941 54.2081 92.8686C54.0827 92.7431 54.0199 92.5928 54.0199 92.4176C54.0199 92.2424 54.0827 92.0921 54.2081 91.9666C54.3336 91.8411 54.4839 91.7784 54.6591 91.7784C54.8343 91.7784 54.9846 91.8411 55.1101 91.9666C55.2356 92.0921 55.2983 92.2424 55.2983 92.4176C55.2983 92.5336 55.2687 92.6402 55.2095 92.7372C55.1527 92.8343 55.0758 92.9124 54.9787 92.9716C54.884 93.0284 54.7775 93.0568 54.6591 93.0568Z" fill="#171618"/>
<path d="M56.8022 87.5455H57.6403V93.3977C57.6403 93.7339 57.5823 94.0251 57.4663 94.2713C57.3527 94.5175 57.1798 94.7081 56.9478 94.843C56.7182 94.978 56.4282 95.0455 56.0778 95.0455C56.0494 95.0455 56.021 95.0455 55.9926 95.0455C55.9642 95.0455 55.9358 95.0455 55.9073 95.0455V94.2642C55.9358 94.2642 55.9618 94.2642 55.9855 94.2642C56.0091 94.2642 56.0352 94.2642 56.0636 94.2642C56.3193 94.2642 56.5063 94.1884 56.6247 94.0369C56.743 93.8878 56.8022 93.6747 56.8022 93.3977V87.5455ZM57.2142 86.6364C57.0508 86.6364 56.9099 86.5807 56.7916 86.4695C56.6756 86.3582 56.6176 86.2244 56.6176 86.0682C56.6176 85.9119 56.6756 85.7782 56.7916 85.6669C56.9099 85.5556 57.0508 85.5 57.2142 85.5C57.3775 85.5 57.5172 85.5556 57.6332 85.6669C57.7516 85.7782 57.8108 85.9119 57.8108 86.0682C57.8108 86.2244 57.7516 86.3582 57.6332 86.4695C57.5172 86.5807 57.3775 86.6364 57.2142 86.6364Z" fill="#171618"/>
<path d="M59.1753 95.0455V87.5455H59.9849V88.4119H60.0844C60.1459 88.3172 60.2311 88.1965 60.34 88.0497C60.4513 87.9006 60.6099 87.768 60.8159 87.652C61.0242 87.5336 61.306 87.4744 61.6611 87.4744C62.1204 87.4744 62.5252 87.5893 62.8756 87.8189C63.2259 88.0485 63.4994 88.3741 63.6959 88.7955C63.8924 89.2169 63.9906 89.714 63.9906 90.2869C63.9906 90.8646 63.8924 91.3653 63.6959 91.7891C63.4994 92.2105 63.2271 92.5372 62.8791 92.7692C62.5311 92.9988 62.1298 93.1136 61.6753 93.1136C61.3249 93.1136 61.0444 93.0556 60.8337 92.9396C60.623 92.8213 60.4608 92.6875 60.3472 92.5384C60.2335 92.3868 60.1459 92.2614 60.0844 92.1619H60.0133V95.0455H59.1753ZM59.9991 90.2727C59.9991 90.6847 60.0595 91.0481 60.1802 91.3629C60.301 91.6754 60.4774 91.9205 60.7094 92.098C60.9414 92.2732 61.2255 92.3608 61.5616 92.3608C61.912 92.3608 62.2044 92.2685 62.4388 92.0838C62.6755 91.8968 62.8531 91.6458 62.9714 91.331C63.0922 91.0137 63.1525 90.661 63.1525 90.2727C63.1525 89.8892 63.0934 89.5436 62.975 89.2358C62.859 88.9257 62.6826 88.6806 62.4459 88.5007C62.2115 88.3184 61.9168 88.2273 61.5616 88.2273C61.2207 88.2273 60.9343 88.3137 60.7023 88.4865C60.4703 88.657 60.2951 88.8961 60.1767 89.2038C60.0583 89.5092 59.9991 89.8655 59.9991 90.2727Z" fill="#171618"/>
<path d="M67.4707 95.1591C67.0659 95.1591 66.7179 95.107 66.4267 95.0028C66.1355 94.901 65.8928 94.7661 65.6987 94.598C65.507 94.4323 65.3543 94.2547 65.2406 94.0653L65.9082 93.5966C65.984 93.696 66.0799 93.8097 66.1959 93.9375C66.3119 94.0677 66.4705 94.1802 66.6717 94.2749C66.8753 94.3719 67.1417 94.4205 67.4707 94.4205C67.9111 94.4205 68.2745 94.3139 68.5609 94.1009C68.8474 93.8878 68.9906 93.554 68.9906 93.0994V91.9915H68.9196C68.858 92.0909 68.7704 92.214 68.6568 92.3608C68.5455 92.5052 68.3846 92.6342 68.1739 92.7479C67.9655 92.8591 67.6838 92.9148 67.3287 92.9148C66.8883 92.9148 66.493 92.8106 66.1426 92.6023C65.7946 92.3939 65.5188 92.0909 65.3152 91.6932C65.114 91.2955 65.0133 90.8125 65.0133 90.2443C65.0133 89.6856 65.1116 89.1991 65.3081 88.7848C65.5046 88.3681 65.778 88.0462 66.1284 87.8189C66.4788 87.5893 66.8836 87.4744 67.3429 87.4744C67.698 87.4744 67.9797 87.5336 68.1881 87.652C68.3988 87.768 68.5597 87.9006 68.671 88.0497C68.7847 88.1965 68.8722 88.3172 68.9338 88.4119H69.019V87.5455H69.8287V93.1562C69.8287 93.625 69.7222 94.0062 69.5091 94.2997C69.2984 94.5956 69.0143 94.8123 68.6568 94.9496C68.3017 95.0893 67.9063 95.1591 67.4707 95.1591ZM67.4423 92.1619C67.7785 92.1619 68.0626 92.085 68.2946 91.9311C68.5266 91.7772 68.703 91.5559 68.8237 91.267C68.9445 90.9782 69.0048 90.6326 69.0048 90.2301C69.0048 89.8371 68.9456 89.4903 68.8273 89.1896C68.7089 88.889 68.5337 88.6534 68.3017 88.483C68.0697 88.3125 67.7832 88.2273 67.4423 88.2273C67.0872 88.2273 66.7913 88.3172 66.5545 88.4972C66.3202 88.6771 66.1438 88.9186 66.0254 89.2216C65.9094 89.5246 65.8514 89.8608 65.8514 90.2301C65.8514 90.6089 65.9106 90.9439 66.029 91.2351C66.1497 91.5239 66.3273 91.7512 66.5616 91.9169C66.7984 92.0803 67.0919 92.1619 67.4423 92.1619Z" fill="#171618"/>
</svg>
