<svg width="21" height="38" viewBox="0 0 21 20" fill="none" xmlns="http://www.w3.org/2000/svg">
    <path
        d="M10.5 0.3125C5.15828 0.3125 0.8125 4.65828 0.8125 10C0.8125 15.3417 5.15828 19.6875 10.5 19.6875C15.8417 19.6875 20.1875 15.3417 20.1875 10C20.1875 4.65828 15.8417 0.3125 10.5 0.3125ZM16.9051 4.77992C18.0575 6.18797 18.7554 7.98137 18.7736 9.93441C18.5008 9.87672 15.7651 9.32184 13.0118 9.66809C12.7871 9.11961 12.5751 8.63711 12.2846 8.04254C15.344 6.79344 16.7306 5.0159 16.9051 4.77992ZM15.9852 3.82305C15.8364 4.03504 14.5908 5.70922 11.6484 6.81207C10.2925 4.32082 8.78965 2.27426 8.56094 1.96801C11.185 1.33547 13.9502 2.01762 15.9852 3.82305ZM6.98207 2.52422C7.20023 2.8234 8.67887 4.8725 10.0499 7.30973C6.17934 8.33758 2.77023 8.32277 2.40016 8.31789C2.93672 5.7502 4.66711 3.61613 6.98207 2.52422ZM2.22539 10.0126C2.22539 9.92801 2.22707 9.84379 2.22961 9.75977C2.59164 9.76719 6.60148 9.81887 10.7338 8.58219C10.9706 9.04578 11.1969 9.51637 11.4046 9.98645C8.41246 10.8292 5.69391 13.2492 4.35262 15.5453C3.03102 14.0783 2.22539 12.1379 2.22539 10.0126ZM5.42098 16.5405C6.28531 14.7736 8.63105 12.4927 11.967 11.3547C13.1287 14.3736 13.6092 16.9036 13.7322 17.6296C11.0716 18.7629 7.87227 18.452 5.42098 16.5405ZM15.1233 16.8721C15.0385 16.3687 14.5981 13.9464 13.5158 10.9723C16.1088 10.5573 18.3869 11.2367 18.67 11.3261C18.3012 13.6284 16.9796 15.6168 15.1233 16.8721Z"
        fill="currentcolor" />
</svg>