<svg width="40" height="40" viewBox="0 0 40 40" fill="none" xmlns="http://www.w3.org/2000/svg">
<rect width="40" height="40" rx="8" fill="#5AA676" fill-opacity="0.2"/>
<path d="M28.6702 14.33C28.8809 14.5409 28.9992 14.8269 28.9992 15.125C28.9992 15.4231 28.8809 15.709 28.6702 15.92L17.7952 26.795C17.5843 27.0057 17.2983 27.124 17.0002 27.124C16.7021 27.124 16.4162 27.0057 16.2052 26.795L11.3302 21.92C11.1316 21.7066 11.0235 21.4245 11.0285 21.133C11.0335 20.8416 11.1514 20.5634 11.3572 20.357C11.5636 20.1511 11.8418 20.0333 12.1333 20.0283C12.4248 20.0232 12.7068 20.1314 12.9202 20.33L17.0002 24.41L27.0802 14.33C27.2912 14.1193 27.5771 14.001 27.8752 14.001C28.1733 14.001 28.4593 14.1193 28.6702 14.33Z" fill="#08773A"/>
</svg>
