<svg width="40" height="40" viewBox="0 0 40 40" fill="none" xmlns="http://www.w3.org/2000/svg">
<rect width="40" height="40" rx="8" fill="#E2E6FD"/>
<path d="M20.0002 8.33325C19.6907 8.33325 19.394 8.45617 19.1752 8.67496C18.9564 8.89375 18.8335 9.1905 18.8335 9.49992V11.8333C18.8335 12.1427 18.9564 12.4394 19.1752 12.6582C19.394 12.877 19.6907 12.9999 20.0002 12.9999C20.3096 12.9999 20.6063 12.877 20.8251 12.6582C21.0439 12.4394 21.1668 12.1427 21.1668 11.8333V9.49992C21.1668 9.1905 21.0439 8.89375 20.8251 8.67496C20.6063 8.45617 20.3096 8.33325 20.0002 8.33325Z" fill="#081777"/>
<path d="M30.5 18.8333H28.1667C27.8572 18.8333 27.5605 18.9562 27.3417 19.175C27.1229 19.3938 27 19.6905 27 19.9999C27 20.3093 27.1229 20.6061 27.3417 20.8249C27.5605 21.0437 27.8572 21.1666 28.1667 21.1666H30.5C30.8094 21.1666 31.1062 21.0437 31.325 20.8249C31.5438 20.6061 31.6667 20.3093 31.6667 19.9999C31.6667 19.6905 31.5438 19.3938 31.325 19.175C31.1062 18.9562 30.8094 18.8333 30.5 18.8333Z" fill="#081777"/>
<path d="M13.0002 19.9999C13.0002 19.6905 12.8772 19.3938 12.6585 19.175C12.4397 18.9562 12.1429 18.8333 11.8335 18.8333H9.50016C9.19074 18.8333 8.894 18.9562 8.6752 19.175C8.45641 19.3938 8.3335 19.6905 8.3335 19.9999C8.3335 20.3093 8.45641 20.6061 8.6752 20.8249C8.894 21.0437 9.19074 21.1666 9.50016 21.1666H11.8335C12.1429 21.1666 12.4397 21.0437 12.6585 20.8249C12.8772 20.6061 13.0002 20.3093 13.0002 19.9999Z" fill="#081777"/>
<path d="M13.2567 11.8368C13.0274 11.6325 12.7276 11.5256 12.4207 11.5387C12.1139 11.5518 11.8243 11.6839 11.6133 11.9071C11.4023 12.1302 11.2866 12.4268 11.2906 12.7338C11.2947 13.0409 11.4182 13.3343 11.635 13.5518L13.315 15.1735C13.4278 15.2823 13.5613 15.3674 13.7076 15.4235C13.8539 15.4796 14.0101 15.5057 14.1667 15.5001C14.3238 15.4995 14.4793 15.4672 14.6236 15.405C14.7679 15.3429 14.8982 15.2522 15.0067 15.1385C15.224 14.9199 15.3459 14.6242 15.3459 14.316C15.3459 14.0077 15.224 13.7121 15.0067 13.4935L13.2567 11.8368Z" fill="#081777"/>
<path d="M25.8334 15.5003C26.1338 15.4991 26.4221 15.3821 26.6384 15.1736L28.3184 13.5519C28.5233 13.3378 28.6391 13.0537 28.6421 12.7573C28.6452 12.4609 28.5353 12.1745 28.3348 11.9561C28.1343 11.7378 27.8582 11.604 27.5627 11.5819C27.2671 11.5597 26.9742 11.6509 26.7434 11.8369L25.0634 13.4936C24.8461 13.7122 24.7241 14.0079 24.7241 14.3161C24.7241 14.6243 24.8461 14.92 25.0634 15.1386C25.2654 15.3518 25.5403 15.4809 25.8334 15.5003Z" fill="#081777"/>
<path d="M20.0002 27C19.6907 27 19.394 27.1229 19.1752 27.3417C18.9564 27.5605 18.8335 27.8572 18.8335 28.1667V30.5C18.8335 30.8094 18.9564 31.1062 19.1752 31.325C19.394 31.5438 19.6907 31.6667 20.0002 31.6667C20.3096 31.6667 20.6063 31.5438 20.8251 31.325C21.0439 31.1062 21.1668 30.8094 21.1668 30.5V28.1667C21.1668 27.8572 21.0439 27.5605 20.8251 27.3417C20.6063 27.1229 20.3096 27 20.0002 27Z" fill="#081777"/>
<path d="M26.6849 24.8299C26.4621 24.6149 26.163 24.4972 25.8534 24.5026C25.5438 24.5081 25.2491 24.6363 25.034 24.8591C24.819 25.0819 24.7013 25.381 24.7067 25.6906C24.7122 26.0002 24.8404 26.2949 25.0632 26.5099L26.7432 28.1666C26.9649 28.3808 27.2623 28.4986 27.5705 28.4942C27.8787 28.4899 28.1727 28.3637 28.3882 28.1433C28.4973 28.0347 28.5838 27.9056 28.6429 27.7634C28.7019 27.6213 28.7323 27.4689 28.7323 27.3149C28.7323 27.161 28.7019 27.0086 28.6429 26.8665C28.5838 26.7243 28.4973 26.5952 28.3882 26.4866L26.6849 24.8299Z" fill="#081777"/>
<path d="M13.3151 24.8311L11.6351 26.4527C11.5258 26.5612 11.439 26.6902 11.3798 26.8324C11.3205 26.9746 11.29 27.1271 11.29 27.2811C11.29 27.4351 11.3205 27.5876 11.3798 27.7297C11.439 27.8719 11.5258 28.0009 11.6351 28.1094C11.7446 28.221 11.8753 28.3096 12.0196 28.3697C12.1639 28.4298 12.3188 28.4603 12.4751 28.4594C12.7627 28.4619 13.0411 28.358 13.2568 28.1677L14.9368 26.5461C15.0471 26.4396 15.1354 26.3124 15.1965 26.1718C15.2577 26.0312 15.2906 25.88 15.2933 25.7267C15.296 25.5734 15.2685 25.4211 15.2123 25.2784C15.1562 25.1358 15.0725 25.0055 14.966 24.8952C14.8595 24.7849 14.7323 24.6967 14.5917 24.6355C14.4511 24.5743 14.2999 24.5415 14.1466 24.5388C13.9933 24.536 13.841 24.5636 13.6983 24.6197C13.5557 24.6759 13.4254 24.7596 13.3151 24.8661V24.8311Z" fill="#081777"/>
</svg>
