<svg width="148" height="108" viewBox="0 0 148 108" fill="none" xmlns="http://www.w3.org/2000/svg">
<path d="M66.0903 75.9721L66.0902 75.9723L60.1401 84.6324C60.1401 84.6324 60.1401 84.6325 60.1401 84.6325C54.775 92.44 46.3857 97 37.5109 97C15.1831 97 -0.896559 75.6173 1.17984 54.096C2.21254 43.3924 7.75308 32.6552 19.3467 24.5702C30.9586 16.4726 48.6997 11 74.1548 11C99.9891 11 117.781 16.4742 129.292 24.568C140.782 32.6465 146.078 43.3744 146.889 54.0756C148.522 75.6216 132.05 97 110.799 97C101.924 97 93.5347 92.4399 88.1719 84.6326L88.1719 84.6325L82.2218 75.9723L82.2217 75.9721C78.203 70.1255 70.109 70.1255 66.0903 75.9721ZM23.2532 50.7777L23.2531 50.7778C21.7482 52.6427 21.7475 55.3569 23.2534 57.2203C26.18 60.8433 32.6105 66.9992 42.5498 66.9992C52.489 66.9992 58.9195 60.8457 61.8465 57.22L61.8466 57.2199C63.3515 55.355 63.3521 52.6407 61.8461 50.7773C58.9194 47.1543 52.4913 40.9985 42.5498 40.9985C32.6083 40.9985 26.1801 47.152 23.2532 50.7777ZM86.1533 50.7777L86.1532 50.7778C84.6483 52.6428 84.6477 55.3571 86.1537 57.2205C89.0804 60.8435 95.5108 66.9992 105.45 66.9992C115.389 66.9992 121.82 60.8457 124.747 57.22L124.747 57.2199C126.252 55.355 126.252 52.6407 124.746 50.7773C121.82 47.1543 115.391 40.9985 105.45 40.9985C95.5084 40.9985 89.0802 47.152 86.1533 50.7777Z" fill="white" stroke="black" stroke-width="2"/>
</svg>
