<svg width="20px" viewBox="0 0 19 19" fill="none" xmlns="http://www.w3.org/2000/svg">
    <path
        d="M3.91165 11.1767C1.74995 11.1767 0 12.9267 0 15.0884C0 17.2501 1.74995 19 3.91165 19C6.07335 19 7.8233 17.2501 7.8233 15.0884V13.4097H11.1767V15.0884C11.1767 17.2501 12.9267 19 15.0884 19C17.2501 19 19 17.2501 19 15.0884C19 12.9267 17.2501 11.1767 15.0884 11.1767H13.4097V7.8233H15.0884C17.2501 7.8233 19 6.07335 19 3.91165C19 1.74995 17.2501 0 15.0884 0C12.9267 0 11.1767 1.74995 11.1767 3.91165V5.59033H7.8233V3.91165C7.8233 1.74995 6.07335 0 3.91165 0C1.74995 0 0 1.74599 0 3.90769C0 6.06939 1.74995 7.81934 3.91165 7.81934H5.59033V11.1727H3.91165V11.1767ZM5.59033 15.0884C5.59033 16.0148 4.83809 16.767 3.91165 16.767C2.9852 16.767 2.23296 16.0148 2.23296 15.0884C2.23296 14.1619 2.9852 13.4097 3.91165 13.4097H5.59033V15.0884ZM13.4136 3.90769C13.4136 2.98125 14.1659 2.22901 15.0923 2.22901C16.0188 2.22901 16.771 2.98125 16.771 3.90769C16.771 4.83413 16.0188 5.58637 15.0923 5.58637H13.4136V3.90769ZM13.4136 13.4097H15.0923C16.0188 13.4097 16.771 14.1619 16.771 15.0884C16.771 16.0148 16.0188 16.767 15.0923 16.767C14.1659 16.767 13.4136 16.0148 13.4136 15.0884V13.4097ZM7.8233 7.81934H11.1767V11.1727H7.8233V7.81934ZM3.91165 5.58637C2.9852 5.58637 2.23296 4.83413 2.23296 3.90769C2.23296 2.98125 2.9852 2.22901 3.91165 2.22901C4.83809 2.22901 5.59033 2.98125 5.59033 3.90769V5.58637H3.91165Z"
        fill="currentcolor" />
</svg>