<svg width="17" height="38" viewBox="0 0 17 17" fill="none" xmlns="http://www.w3.org/2000/svg">
    <path
        d="M16.9186 16.7626V16.7619H16.9226V10.6975C16.9226 7.73068 16.2932 5.44531 12.8751 5.44531C11.2319 5.44531 10.1292 6.36029 9.67903 7.22772H9.6315V5.72229H6.39062V16.7619H9.76527V11.2955C9.76527 9.85621 10.0342 8.46446 11.7907 8.46446C13.5215 8.46446 13.5473 10.107 13.5473 11.3878V16.7626H16.9186Z"
        fill="currentcolor" />
    <path d="M0.892578 5.71875H4.2713V16.7584H0.892578V5.71875Z" fill="currentcolor" />
    <path
        d="M2.58189 0.226562C1.50159 0.226562 0.625 1.11605 0.625 2.21223C0.625 3.3084 1.50159 4.21649 2.58189 4.21649C3.66218 4.21649 4.53877 3.3084 4.53877 2.21223C4.53809 1.11605 3.6615 0.226563 2.58189 0.226563V0.226562Z"
        fill="currentcolor" />
</svg>