<svg width="64" height="64" viewBox="0 0 64 64" fill="none" xmlns="http://www.w3.org/2000/svg">
<rect width="64" height="64" fill="#0057FF"/>
<path d="M44.4393 33.6563C44.4393 33.9586 44.3202 34.2485 44.1081 34.4622C43.896 34.6759 43.6084 34.7961 43.3084 34.7961C43.0085 34.7961 42.7208 34.6759 42.5087 34.4622C42.2967 34.2485 42.1775 33.9586 42.1775 33.6563V23.4743C42.1775 23.172 42.2967 22.8821 42.5087 22.6684C42.7208 22.4547 43.0085 22.3346 43.3084 22.3346C43.6084 22.3346 43.896 22.4547 44.1081 22.6684C44.3202 22.8821 44.4393 23.172 44.4393 23.4743V33.6563ZM44.0467 40.7112C43.8972 40.8619 39.6916 44.394 31.9813 44.394C24.271 44.394 20.0934 40.8807 19.9159 40.7299C19.804 40.6349 19.7118 40.5185 19.6446 40.3874C19.5775 40.2563 19.5366 40.1132 19.5245 39.9661C19.5123 39.8192 19.5291 39.6712 19.5738 39.5306C19.6185 39.3903 19.6903 39.26 19.785 39.1475C19.9802 38.92 20.2568 38.7794 20.5544 38.7564C20.852 38.7335 21.1466 38.8302 21.3738 39.0251C21.4392 39.0723 25.1962 42.1428 31.9719 42.1428C38.7477 42.1428 42.5327 39.0534 42.5702 39.0251C42.7999 38.8318 43.0955 38.7365 43.3938 38.7594C43.6923 38.7823 43.9701 38.9215 44.1682 39.1475C44.3589 39.3718 44.4541 39.6629 44.4331 39.9573C44.4121 40.2518 44.2766 40.5262 44.0561 40.7206L44.0467 40.7112ZM19.514 23.4743C19.5309 23.1711 19.6662 22.8869 19.8904 22.684C20.1145 22.481 20.4093 22.3757 20.7103 22.3911C20.9893 22.4071 21.2525 22.5266 21.4492 22.7266C21.646 22.9266 21.7623 23.193 21.7757 23.4743V33.6375C21.7757 33.9397 21.6565 34.2296 21.4445 34.4433C21.2324 34.6572 20.9448 34.7772 20.6448 34.7772C20.3449 34.7772 20.0573 34.6572 19.8452 34.4433C19.6331 34.2296 19.514 33.9397 19.514 33.6375V23.4743ZM25.1869 21.2137C25.2038 20.9105 25.3391 20.6264 25.5633 20.4234C25.7874 20.2204 26.0822 20.1151 26.3832 20.1305C26.6622 20.1465 26.9254 20.266 27.1221 20.466C27.3189 20.6661 27.4352 20.9324 27.4486 21.2137V36.2842C27.4486 36.5865 27.3294 36.8764 27.1174 37.0901C26.9053 37.3038 26.6177 37.4238 26.3177 37.4238C26.0178 37.4238 25.7302 37.3038 25.5181 37.0901C25.306 36.8764 25.1869 36.5865 25.1869 36.2842V21.2137ZM30.8879 20.6486C30.8879 20.3463 31.007 20.0564 31.2191 19.8427C31.4312 19.629 31.7188 19.5089 32.0186 19.5089C32.3186 19.5089 32.6062 19.629 32.8183 19.8427C33.0304 20.0564 33.1495 20.3463 33.1495 20.6486V37.0378C33.1495 37.34 33.0304 37.6298 32.8183 37.8437C32.6062 38.0574 32.3186 38.1774 32.0186 38.1774C31.7188 38.1774 31.4312 38.0574 31.2191 37.8437C31.007 37.6298 30.8879 37.34 30.8879 37.0378V20.6486ZM36.4954 21.2137C36.4954 20.9115 36.6145 20.6216 36.8266 20.4078C37.0387 20.1941 37.3263 20.074 37.6261 20.074C37.9261 20.074 38.2137 20.1941 38.4258 20.4078C38.6379 20.6216 38.757 20.9115 38.757 21.2137V36.2842C38.757 36.5865 38.6379 36.8764 38.4258 37.0901C38.2137 37.3038 37.9261 37.4238 37.6261 37.4238C37.3263 37.4238 37.0387 37.3038 36.8266 37.0901C36.6145 36.8764 36.4954 36.5865 36.4954 36.2842V21.2137ZM44.7476 14.9972H19.2523C18.6968 14.9934 18.146 15.1002 17.6314 15.3113C17.1169 15.5224 16.6487 15.8337 16.2537 16.2275C15.8587 16.6212 15.5447 17.0895 15.3295 17.6057C15.1144 18.1219 15.0024 18.6758 15 19.2357V44.6672C15.0024 45.227 15.1144 45.781 15.3295 46.2972C15.5447 46.8133 15.8587 47.2818 16.2537 47.6754C16.6487 48.0691 17.1169 48.3805 17.6314 48.5916C18.146 48.8028 18.6968 48.9094 19.2523 48.9057H44.7476C45.3024 48.9094 45.8525 48.8031 46.3664 48.5925C46.8803 48.382 47.3481 48.0715 47.7429 47.6787C48.1378 47.2861 48.4521 46.8188 48.6677 46.3036C48.8835 45.7886 48.9964 45.2356 49 44.6766V19.2357C48.9976 18.6766 48.8859 18.1235 48.6713 17.6079C48.4568 17.0923 48.1436 16.6244 47.7495 16.2308C47.3555 15.8372 46.8885 15.5257 46.375 15.314C45.8616 15.1024 45.3118 14.9947 44.757 14.9972" fill="white"/>
</svg>
