<svg width="100%" viewBox="0 0 34 34" fill="none" xmlns="http://www.w3.org/2000/svg">
    <path fillRule="evenodd" clipRule="evenodd"
        d="M24.9284 22.1384C28.9967 16.716 28.5646 8.98718 23.6321 4.05462C18.2259 -1.35154 9.46078 -1.35154 4.05462 4.05462C-1.35154 9.46078 -1.35154 18.2259 4.05462 23.6321C8.98718 28.5646 16.716 28.9967 22.1384 24.9284C22.1688 24.9632 22.2005 24.9973 22.2337 25.0304L30.624 33.4208C31.3963 34.1931 32.6485 34.1931 33.4208 33.4208C34.1931 32.6485 34.1931 31.3963 33.4208 30.624L25.0304 22.2337C24.9973 22.2005 24.9632 22.1688 24.9284 22.1384ZM20.8353 6.85139C24.6968 10.7129 24.6968 16.9737 20.8353 20.8353C16.9737 24.6968 10.7129 24.6968 6.85139 20.8353C2.98985 16.9737 2.98985 10.7129 6.85139 6.85139C10.7129 2.98985 16.9737 2.98985 20.8353 6.85139Z"
        fill="currentcolor" />
</svg>