<svg width="19" height="38" viewBox="0 0 19 16" fill="none" xmlns="http://www.w3.org/2000/svg">
    <path
        d="M18.7704 2.28197C18.0755 2.58682 17.3349 2.78889 16.5629 2.887C17.3571 2.41279 17.9633 1.66758 18.2483 0.769373C17.5078 1.21089 16.6902 1.52275 15.8188 1.69679C15.1157 0.948081 14.1135 0.484375 13.0202 0.484375C10.8991 0.484375 9.19146 2.20604 9.19146 4.31667C9.19146 4.62035 9.21716 4.91236 9.28023 5.19035C6.09503 5.035 3.27658 3.50839 1.38321 1.18285C1.05266 1.75635 0.858768 2.41279 0.858768 3.11944C0.858768 4.44632 1.54206 5.62252 2.56058 6.30348C1.94503 6.2918 1.34116 6.11309 0.829568 5.8316C0.829568 5.84328 0.829568 5.85846 0.829568 5.87364C0.829568 7.73548 2.15761 9.28194 3.89914 9.63819C3.58728 9.72346 3.24738 9.76434 2.89464 9.76434C2.64935 9.76434 2.40173 9.75032 2.16929 9.69893C2.6657 11.2162 4.07434 12.3317 5.74929 12.3679C4.44577 13.3876 2.79068 14.0019 0.998931 14.0019C0.684732 14.0019 0.383382 13.9879 0.0820312 13.9494C1.77917 15.0438 3.79051 15.6687 5.95954 15.6687C13.0097 15.6687 16.8642 9.82858 16.8642 4.76636C16.8642 4.59699 16.8584 4.43347 16.8502 4.27111C17.6106 3.73149 18.2495 3.05754 18.7704 2.28197Z"
        fill="currentcolor" />
</svg>