<svg width="100%" viewBox="0 0 32 64" fill="none" xmlns="http://www.w3.org/2000/svg">
    <path
        d="M30.6672 32L15.918 41.2737L1.33284 32C1.09 32.0002 0.851798 32.1035 0.64394 32.2988C0.436082 32.4941 0.266461 32.774 0.153383 33.1083C0.0403037 33.4426 -0.0119391 33.8186 0.00229197 34.1957C0.0165231 34.5728 0.0966877 34.9367 0.234135 35.2481L14.9013 63.101C15.0238 63.3783 15.1879 63.6049 15.3793 63.7616C15.5707 63.9182 15.7837 64 16 64C16.2163 64 16.4293 63.9182 16.6207 63.7616C16.8121 63.6049 16.9762 63.3783 17.0987 63.101L31.7659 35.2481C31.9033 34.9367 31.9835 34.5728 31.9977 34.1957C32.0119 33.8186 31.9597 33.4426 31.8466 33.1083C31.7335 32.774 31.5639 32.4941 31.3561 32.2988C31.1482 32.1035 30.91 32.0002 30.6672 32Z"
        fill="#ffd231" />
</svg>